<svg width="0" height="0" fill="none" style="visibility: hidden; position: absolute;" aria-hidden="true">
    <symbol id="AirplaneTilt" width="32" height="32" viewBox="0 0 32 32" fill="none" xmlns="http://www.w3.org/2000/svg">
        <path opacity="0.2" d="M26.125 10.1251L22 14.0001L26 25.0001L23 28.0001L17 19.0001L14 22.0001V25.0001L11 28.0001L9 23.0001L4 21.0001L7 18.0001H10L13 15.0001L4 9.00008L7 6.00008L18 10.0001L21.875 5.87508C22.4386 5.31149 23.203 4.99487 24 4.99487C24.797 4.99487 25.5614 5.31149 26.125 5.87508C26.6886 6.43866 27.0052 7.20305 27.0052 8.00008C27.0052 8.79711 26.6886 9.56149 26.125 10.1251Z" fill="#FBFCFA"/>
        <path d="M23.1663 14.2762L26.8088 10.8475L26.83 10.8275C27.5802 10.0773 28.0017 9.05973 28.0017 7.99875C28.0017 6.93776 27.5802 5.92023 26.83 5.17C26.0798 4.41977 25.0622 3.99829 24.0013 3.99829C22.9403 3.99829 21.9227 4.41977 21.1725 5.17L21.1525 5.19125L17.7238 8.83375L7.34876 5.05875C7.16994 4.99371 6.97628 4.98104 6.79052 5.02222C6.60475 5.0634 6.43459 5.15673 6.30001 5.29125L3.30001 8.29125C3.19547 8.39587 3.11544 8.52238 3.06568 8.66166C3.01593 8.80094 2.99769 8.94952 3.01227 9.0967C3.02686 9.24388 3.07391 9.38598 3.15004 9.51279C3.22616 9.63959 3.32947 9.74793 3.45251 9.83L11.4388 15.1537L9.58626 17H7.00001C6.73515 17.0001 6.48115 17.1053 6.29376 17.2925L3.29376 20.2925C3.17676 20.4092 3.09051 20.5531 3.04272 20.7113C2.99494 20.8695 2.9871 21.0371 3.01991 21.199C3.05273 21.361 3.12517 21.5123 3.23076 21.6394C3.33636 21.7666 3.47181 21.8655 3.62501 21.9275L8.22751 23.7687L10.065 28.3625L10.0725 28.3825C10.1361 28.5364 10.2371 28.6719 10.3663 28.7769C10.4955 28.8819 10.6489 28.9529 10.8125 28.9836C10.9762 29.0142 11.1449 29.0036 11.3034 28.9525C11.4618 28.9015 11.605 28.8117 11.72 28.6912L14.7038 25.7062C14.7971 25.6138 14.8713 25.5038 14.9222 25.3826C14.973 25.2614 14.9995 25.1314 15 25V22.4137L16.845 20.5687L22.1688 28.555C22.2508 28.678 22.3592 28.7813 22.486 28.8575C22.6128 28.9336 22.7549 28.9806 22.9021 28.9952C23.0492 29.0098 23.1978 28.9916 23.3371 28.9418C23.4764 28.8921 23.6029 28.812 23.7075 28.7075L26.7075 25.7075C26.842 25.5729 26.9354 25.4028 26.9765 25.217C27.0177 25.0312 27.005 24.8376 26.94 24.6587L23.1663 14.2762ZM23.1575 26.43L17.8338 18.4437C17.752 18.32 17.6438 18.216 17.5169 18.1392C17.39 18.0625 17.2476 18.0149 17.1 18C17.0671 17.9982 17.0342 17.9982 17.0013 18C16.8699 17.9999 16.7398 18.0257 16.6184 18.0759C16.497 18.126 16.3867 18.1997 16.2938 18.2925L13.2938 21.2925C13.2007 21.3853 13.1269 21.4956 13.0765 21.617C13.026 21.7384 13.0001 21.8685 13 22V24.5862L11.3663 26.22L9.92876 22.625C9.87846 22.5002 9.8035 22.3868 9.70834 22.2917C9.61319 22.1965 9.49982 22.1215 9.37501 22.0712L5.78251 20.6337L7.41501 19H10C10.1314 19.0001 10.2615 18.9743 10.3829 18.9241C10.5043 18.8739 10.6146 18.8003 10.7075 18.7075L13.7075 15.7075C13.8123 15.6029 13.8925 15.4763 13.9424 15.3369C13.9923 15.1975 14.0106 15.0487 13.996 14.9014C13.9814 14.754 13.9343 14.6118 13.858 14.4849C13.7818 14.3579 13.6783 14.2495 13.555 14.1675L5.57001 8.8425L7.25751 7.15625L17.66 10.9387C17.8433 11.0061 18.0423 11.0183 18.2324 10.9739C18.4226 10.9295 18.5955 10.8303 18.73 10.6887L22.5975 6.57875C22.9773 6.23088 23.4766 6.04294 23.9916 6.05406C24.5065 6.06518 24.9972 6.2745 25.3616 6.63844C25.7261 7.00238 25.936 7.49287 25.9478 8.00776C25.9597 8.52265 25.7724 9.02224 25.425 9.4025L21.3163 13.27C21.1747 13.4045 21.0756 13.5774 21.0311 13.7676C20.9867 13.9577 20.9989 14.1567 21.0663 14.34L24.8488 24.7425L23.1575 26.43Z" fill="#FBFCFA"/>
    </symbol>
    <symbol id="ArrowRight" width="16" height="16" viewBox="0 0 16 16" fill="none" xmlns="http://www.w3.org/2000/svg">
        <path d="M14.0306 8.53074L9.53063 13.0307C9.38973 13.1716 9.19863 13.2508 8.99938 13.2508C8.80012 13.2508 8.60902 13.1716 8.46813 13.0307C8.32723 12.8898 8.24807 12.6987 8.24807 12.4995C8.24807 12.3002 8.32723 12.1091 8.46813 11.9682L11.6875 8.75011H2.5C2.30109 8.75011 2.11032 8.67109 1.96967 8.53044C1.82902 8.38979 1.75 8.19902 1.75 8.00011C1.75 7.8012 1.82902 7.61043 1.96967 7.46978C2.11032 7.32913 2.30109 7.25011 2.5 7.25011H11.6875L8.46937 4.03011C8.32848 3.88921 8.24932 3.69812 8.24932 3.49886C8.24932 3.2996 8.32848 3.10851 8.46937 2.96761C8.61027 2.82671 8.80137 2.74756 9.00062 2.74756C9.19988 2.74756 9.39098 2.82671 9.53187 2.96761L14.0319 7.46761C14.1018 7.53738 14.1573 7.62028 14.1951 7.71155C14.2329 7.80281 14.2523 7.90065 14.2522 7.99943C14.252 8.09822 14.2324 8.19601 14.1944 8.28718C14.1564 8.37836 14.1007 8.46113 14.0306 8.53074Z" fill="#FBFCFA"/>
    </symbol>
    <symbol id="btn-arrow" width="25" height="26" viewBox="0 0 25 26" fill="none" xmlns="http://www.w3.org/2000/svg">
        <g opacity="0.9">
            <rect y="0.5" width="25" height="25" rx="12.5" fill="#FBFCFA"/>
            <path d="M18.5306 13.5306L14.0306 18.0306C13.8897 18.1715 13.6986 18.2507 13.4994 18.2507C13.3001 18.2507 13.109 18.1715 12.9681 18.0306C12.8272 17.8897 12.7481 17.6986 12.7481 17.4994C12.7481 17.3001 12.8272 17.109 12.9681 16.9681L16.1875 13.75H7C6.80109 13.75 6.61032 13.671 6.46967 13.5303C6.32902 13.3897 6.25 13.1989 6.25 13C6.25 12.8011 6.32902 12.6103 6.46967 12.4697C6.61032 12.329 6.80109 12.25 7 12.25H16.1875L12.9694 9.02999C12.8285 8.88909 12.7493 8.69799 12.7493 8.49874C12.7493 8.29948 12.8285 8.10838 12.9694 7.96749C13.1103 7.82659 13.3014 7.74744 13.5006 7.74744C13.6999 7.74744 13.891 7.82659 14.0319 7.96749L18.5319 12.4675C18.6018 12.5373 18.6573 12.6202 18.6951 12.7114C18.7329 12.8027 18.7523 12.9005 18.7522 12.9993C18.752 13.0981 18.7324 13.1959 18.6944 13.2871C18.6564 13.3782 18.6007 13.461 18.5306 13.5306Z" fill="#5F4B8B"/>
        </g>
    </symbol>
    <symbol id="buisenes" width="100" height="100" viewBox="0 0 100 100" fill="none" xmlns="http://www.w3.org/2000/svg">
        <rect width="100" height="100" rx="50" fill="#A3CEDF"/>
        <path d="M54.2188 47.1875C54.2188 47.5605 54.0706 47.9181 53.8069 48.1819C53.5431 48.4456 53.1855 48.5938 52.8125 48.5938H47.1875C46.8145 48.5938 46.4569 48.4456 46.1931 48.1819C45.9294 47.9181 45.7812 47.5605 45.7812 47.1875C45.7812 46.8145 45.9294 46.4569 46.1931 46.1931C46.4569 45.9294 46.8145 45.7812 47.1875 45.7812H52.8125C53.1855 45.7812 53.5431 45.9294 53.8069 46.1931C54.0706 46.4569 54.2188 46.8145 54.2188 47.1875ZM68.2812 40.1562V62.6562C68.2812 63.4022 67.9849 64.1175 67.4575 64.645C66.93 65.1724 66.2147 65.4688 65.4688 65.4688H34.5312C33.7853 65.4688 33.07 65.1724 32.5425 64.645C32.0151 64.1175 31.7188 63.4022 31.7188 62.6562V40.1562C31.7188 39.4103 32.0151 38.695 32.5425 38.1675C33.07 37.6401 33.7853 37.3438 34.5312 37.3438H41.5625V35.9375C41.5625 34.8186 42.007 33.7456 42.7981 32.9544C43.5893 32.1632 44.6624 31.7188 45.7812 31.7188H54.2188C55.3376 31.7188 56.4107 32.1632 57.2019 32.9544C57.993 33.7456 58.4375 34.8186 58.4375 35.9375V37.3438H65.4688C66.2147 37.3438 66.93 37.6401 67.4575 38.1675C67.9849 38.695 68.2812 39.4103 68.2812 40.1562ZM44.375 37.3438H55.625V35.9375C55.625 35.5645 55.4768 35.2069 55.2131 34.9431C54.9494 34.6794 54.5917 34.5312 54.2188 34.5312H45.7812C45.4083 34.5312 45.0506 34.6794 44.7869 34.9431C44.5232 35.2069 44.375 35.5645 44.375 35.9375V37.3438ZM65.4688 47.4705V40.1562H34.5312V47.4705C39.2777 50.0541 44.5959 51.4072 50 51.4062C55.4041 51.4072 60.7223 50.0541 65.4688 47.4705Z" fill="#0078A7"/>
    </symbol>
    <symbol id="Eng" width="100" height="100" viewBox="0 0 100 100" fill="none" xmlns="http://www.w3.org/2000/svg">
        <rect width="100" height="100" rx="50" fill="#FFE2B0"/>
        <path d="M50.7031 31.7188C46.0427 31.7239 41.5746 33.5775 38.2792 36.8729C34.9837 40.1683 33.1301 44.6364 33.125 49.2969V64.1205C33.1259 64.8508 33.4164 65.5508 33.9328 66.0672C34.4492 66.5836 35.1492 66.8741 35.8795 66.875H50.7031C55.3651 66.875 59.8362 65.023 63.1327 61.7265C66.4293 58.4299 68.2812 53.9589 68.2812 49.2969C68.2812 44.6349 66.4293 40.1638 63.1327 36.8673C59.8362 33.5707 55.3651 31.7188 50.7031 31.7188ZM42.9688 52.1094C42.5516 52.1094 42.1437 51.9857 41.7968 51.7539C41.45 51.5221 41.1796 51.1927 41.0199 50.8072C40.8603 50.4218 40.8185 49.9977 40.8999 49.5885C40.9813 49.1793 41.1822 48.8034 41.4772 48.5084C41.7722 48.2134 42.1481 48.0125 42.5572 47.9312C42.9664 47.8498 43.3905 47.8915 43.776 48.0512C44.1614 48.2108 44.4909 48.4812 44.7226 48.8281C44.9544 49.175 45.0781 49.5828 45.0781 50C45.0781 50.5594 44.8559 51.096 44.4603 51.4916C44.0647 51.8871 43.5282 52.1094 42.9688 52.1094ZM50.7031 52.1094C50.2859 52.1094 49.8781 51.9857 49.5312 51.7539C49.1843 51.5221 48.914 51.1927 48.7543 50.8072C48.5947 50.4218 48.5529 49.9977 48.6343 49.5885C48.7157 49.1793 48.9166 48.8034 49.2116 48.5084C49.5066 48.2134 49.8824 48.0125 50.2916 47.9312C50.7008 47.8498 51.1249 47.8915 51.5103 48.0512C51.8958 48.2108 52.2252 48.4812 52.457 48.8281C52.6888 49.175 52.8125 49.5828 52.8125 50C52.8125 50.5594 52.5903 51.096 52.1947 51.4916C51.7991 51.8871 51.2626 52.1094 50.7031 52.1094ZM58.4375 52.1094C58.0203 52.1094 57.6125 51.9857 57.2656 51.7539C56.9187 51.5221 56.6483 51.1927 56.4887 50.8072C56.329 50.4218 56.2873 49.9977 56.3687 49.5885C56.45 49.1793 56.6509 48.8034 56.9459 48.5084C57.2409 48.2134 57.6168 48.0125 58.026 47.9312C58.4352 47.8498 58.8593 47.8915 59.2447 48.0512C59.6302 48.2108 59.9596 48.4812 60.1914 48.8281C60.4232 49.175 60.5469 49.5828 60.5469 50C60.5469 50.5594 60.3246 51.096 59.9291 51.4916C59.5335 51.8871 58.9969 52.1094 58.4375 52.1094Z" fill="#FFB025"/>
    </symbol>
    <symbol id="everyday" width="100" height="100" viewBox="0 0 100 100" fill="none" xmlns="http://www.w3.org/2000/svg">
        <rect width="100" height="100" rx="50" fill="#F7D5DE"/>
        <path d="M57.3072 40.26C56.0346 37.2804 53.7721 34.8317 50.9023 33.3278C48.0325 31.824 44.7314 31.3572 41.5571 32.0064C38.3828 32.6557 35.5301 34.3811 33.4813 36.891C31.4324 39.4009 30.3131 42.5413 30.3125 45.7813V57.3829C30.3125 58.0355 30.5718 58.6615 31.0333 59.123C31.4948 59.5845 32.1208 59.8438 32.7734 59.8438H42.735C43.8323 62.3498 45.6356 64.4821 47.9246 65.9804C50.2135 67.4788 52.8892 68.2782 55.625 68.2813H67.2266C67.8792 68.2813 68.5052 68.022 68.9667 67.5605C69.4282 67.099 69.6875 66.473 69.6875 65.8204V54.2188C69.6868 50.781 68.4269 47.4625 66.1457 44.8905C63.8646 42.3185 60.7204 40.6712 57.3072 40.26ZM66.875 65.4688H55.625C53.6357 65.4665 51.6824 64.938 49.9634 63.9368C48.2445 62.9356 46.821 61.4974 45.8375 59.7682C47.7636 59.5683 49.6275 58.9725 51.3124 58.0181C52.9972 57.0637 54.4666 55.7713 55.6283 54.222C56.79 52.6728 57.6189 50.9001 58.063 49.0153C58.5071 47.1305 58.5568 45.1743 58.209 43.2694C60.6757 43.8515 62.8735 45.2495 64.4464 47.2368C66.0193 49.2241 66.875 51.6843 66.875 54.2188V65.4688Z" fill="#D72D5C"/>
    </symbol>
    <symbol id="Gift" width="42" height="42" viewBox="0 0 42 42" fill="none" xmlns="http://www.w3.org/2000/svg">
        <path opacity="0.2" d="M34.125 21V32.8125C34.125 33.1606 33.9867 33.4944 33.7406 33.7406C33.4944 33.9867 33.1606 34.125 32.8125 34.125H9.1875C8.8394 34.125 8.50556 33.9867 8.25942 33.7406C8.01328 33.4944 7.875 33.1606 7.875 32.8125V21H34.125Z" fill="#0078A7"/>
        <path d="M35.4375 11.8125H29.6822C29.7462 11.7583 29.8118 11.7058 29.8741 11.6484C30.3724 11.2057 30.774 10.665 31.0537 10.06C31.3335 9.45508 31.4854 8.7989 31.5 8.13255C31.5216 7.40358 31.3939 6.67789 31.1248 6.00004C30.8558 5.3222 30.451 4.70649 29.9354 4.19073C29.4198 3.67496 28.8042 3.27003 28.1265 3.00077C27.4487 2.73152 26.723 2.60364 25.9941 2.62497C25.3274 2.63933 24.6709 2.79114 24.0657 3.0709C23.4604 3.35067 22.9194 3.75236 22.4766 4.25083C21.8638 4.96105 21.3656 5.76257 21 6.62646C20.6344 5.76257 20.1362 4.96105 19.5234 4.25083C19.0806 3.75236 18.5396 3.35067 17.9343 3.0709C17.3291 2.79114 16.6726 2.63933 16.0059 2.62497C15.277 2.60364 14.5513 2.73152 13.8735 3.00077C13.1958 3.27003 12.5802 3.67496 12.0646 4.19073C11.549 4.70649 11.1442 5.3222 10.8752 6.00004C10.6061 6.67789 10.4784 7.40358 10.5 8.13255C10.5146 8.7989 10.6665 9.45508 10.9463 10.06C11.226 10.665 11.6276 11.2057 12.1259 11.6484C12.1882 11.7025 12.2538 11.755 12.3178 11.8125H6.5625C5.86631 11.8125 5.19863 12.089 4.70634 12.5813C4.21406 13.0736 3.9375 13.7413 3.9375 14.4375V19.6875C3.9375 20.3837 4.21406 21.0513 4.70634 21.5436C5.19863 22.0359 5.86631 22.3125 6.5625 22.3125V32.8125C6.5625 33.5087 6.83906 34.1763 7.33134 34.6686C7.82363 35.1609 8.49131 35.4375 9.1875 35.4375H32.8125C33.5087 35.4375 34.1764 35.1609 34.6687 34.6686C35.1609 34.1763 35.4375 33.5087 35.4375 32.8125V22.3125C36.1337 22.3125 36.8014 22.0359 37.2937 21.5436C37.7859 21.0513 38.0625 20.3837 38.0625 19.6875V14.4375C38.0625 13.7413 37.7859 13.0736 37.2937 12.5813C36.8014 12.089 36.1337 11.8125 35.4375 11.8125ZM24.4453 5.98989C24.6531 5.7604 24.9061 5.57636 25.1885 5.44931C25.4708 5.32226 25.7764 5.25495 26.0859 5.25161H26.1663C26.5292 5.25388 26.8879 5.32855 27.2216 5.47124C27.5552 5.61394 27.857 5.82179 28.1092 6.08261C28.3615 6.34344 28.5592 6.65199 28.6907 6.99019C28.8222 7.32839 28.8848 7.68943 28.875 8.05216C28.8717 8.36174 28.8044 8.66729 28.6773 8.94962C28.5503 9.23195 28.3662 9.48497 28.1367 9.69278C26.5798 11.0709 23.9958 11.5565 22.3945 11.7272C22.5914 9.98974 23.1328 7.46481 24.4453 5.98989ZM13.9305 6.04896C14.439 5.54051 15.1277 5.25337 15.8468 5.24997H15.9272C16.2368 5.25331 16.5423 5.32062 16.8246 5.44767C17.107 5.57472 17.36 5.75876 17.5678 5.98825C18.9443 7.54356 19.4299 10.1226 19.6005 11.7173C18.0059 11.5533 15.4268 11.0611 13.8715 9.68458C13.642 9.47677 13.4579 9.22375 13.3309 8.94142C13.2038 8.65909 13.1365 8.35354 13.1332 8.04395C13.123 7.6752 13.1879 7.30822 13.3238 6.96528C13.4597 6.62235 13.6639 6.3106 13.924 6.04896H13.9305ZM6.5625 14.4375H19.6875V19.6875H6.5625V14.4375ZM9.1875 22.3125H19.6875V32.8125H9.1875V22.3125ZM32.8125 32.8125H22.3125V22.3125H32.8125V32.8125ZM35.4375 19.6875H22.3125V14.4375H35.4375V19.6875Z" fill="#0078A7"/>
    </symbol>
    <symbol id="HourglassSimpleMedium" width="32" height="32" viewBox="0 0 32 32" fill="none" xmlns="http://www.w3.org/2000/svg">
        <path opacity="0.2" d="M22.2662 10L16 16L9.73375 10H22.2662Z" fill="#FBFCFA"/>
        <path d="M26.3975 24.57L17.4463 16L26.3975 7.43C26.4026 7.42427 26.408 7.41885 26.4138 7.41375C26.6933 7.13405 26.8836 6.77777 26.9607 6.38993C27.0378 6.00209 26.9982 5.6001 26.8469 5.23476C26.6956 4.86942 26.4394 4.55713 26.1107 4.33736C25.7819 4.11758 25.3954 4.00018 25 4H7C6.60457 4.00018 6.21807 4.11758 5.88935 4.33736C5.56062 4.55713 5.30442 4.86942 5.15312 5.23476C5.00182 5.6001 4.96221 6.00209 5.03931 6.38993C5.1164 6.77777 5.30673 7.13405 5.58625 7.41375C5.59198 7.41885 5.5974 7.42427 5.6025 7.43L14.5538 16L5.6025 24.57C5.5974 24.5757 5.59198 24.5812 5.58625 24.5863C5.30673 24.866 5.1164 25.2222 5.03931 25.6101C4.96221 25.9979 5.00182 26.3999 5.15312 26.7652C5.30442 27.1306 5.56062 27.4429 5.88935 27.6626C6.21807 27.8824 6.60457 27.9998 7 28H25C25.3955 28.0001 25.7822 27.8828 26.1111 27.6632C26.44 27.4435 26.6964 27.1312 26.8479 26.7658C26.9993 26.4004 27.0391 25.9983 26.962 25.6104C26.885 25.2224 26.6946 24.866 26.415 24.5863C26.4088 24.5812 26.403 24.5758 26.3975 24.57ZM12.2238 11H19.7763L16 14.615L12.2238 11ZM25 6L21.865 9H10.135L7 6H25ZM7 26L15 18.3425V21C15 21.2652 15.1054 21.5196 15.2929 21.7071C15.4804 21.8946 15.7348 22 16 22C16.2652 22 16.5196 21.8946 16.7071 21.7071C16.8946 21.5196 17 21.2652 17 21V18.3425L25 26H7Z" fill="#FBFCFA"/>
    </symbol>
    <symbol id="Lightning" width="42" height="42" viewBox="0 0 42 42" fill="none" xmlns="http://www.w3.org/2000/svg">
        <path opacity="0.2" d="M15.75 39.375L18.375 26.25L7.875 22.3125L26.25 2.625L23.625 15.75L34.125 19.6875L15.75 39.375Z" fill="#5E4A8A"/>
        <path d="M35.403 19.3873C35.3533 19.1769 35.2525 18.9821 35.1094 18.8201C34.9662 18.6581 34.7853 18.534 34.5827 18.4587L25.1311 14.9133L27.5362 2.8826C27.5907 2.60307 27.5528 2.31341 27.4282 2.05733C27.3036 1.80125 27.0991 1.59265 26.8455 1.463C26.5919 1.33335 26.3031 1.28968 26.0225 1.3386C25.742 1.38751 25.4849 1.52635 25.2902 1.73416L6.91523 21.4217C6.76599 21.5789 6.65803 21.7707 6.60099 21.9798C6.54395 22.189 6.53961 22.409 6.58836 22.6203C6.63711 22.8315 6.73743 23.0274 6.88035 23.1904C7.02328 23.3534 7.20436 23.4785 7.40742 23.5545L16.8623 27.0999L14.4637 39.1174C14.4093 39.397 14.4472 39.6866 14.5718 39.9427C14.6964 40.1988 14.9009 40.4074 15.1545 40.537C15.408 40.6667 15.6969 40.7104 15.9775 40.6614C16.258 40.6125 16.515 40.4737 16.7098 40.2659L35.0848 20.5784C35.2313 20.4211 35.337 20.2302 35.3925 20.0225C35.448 19.8148 35.4516 19.5967 35.403 19.3873ZM17.9435 35.1094L19.6612 26.5158C19.7227 26.211 19.674 25.8943 19.5238 25.6221C19.3735 25.3499 19.1316 25.1398 18.8409 25.0294L10.1719 21.7728L24.0548 6.89885L22.3387 15.4924C22.2773 15.7972 22.326 16.1139 22.4762 16.3861C22.6264 16.6583 22.8684 16.8684 23.1591 16.9788L31.8216 20.2273L17.9435 35.1094Z" fill="#5E4A8A"/>
    </symbol>
    <symbol id="monkey" width="212" height="221" viewBox="0 0 212 221" fill="none" xmlns="http://www.w3.org/2000/svg">
        <path fill-rule="evenodd" clip-rule="evenodd" d="M93.5515 72.2883C93.5515 66.8702 89.2421 62.5928 83.7836 62.5928C78.325 62.5928 74.0156 66.8702 74.0156 72.2883C74.0156 77.7063 78.325 81.9838 83.7836 81.9838C89.2421 81.9838 93.5515 77.5637 93.5515 72.2883Z" fill="#5E4A8A"/>
        <path fill-rule="evenodd" clip-rule="evenodd" d="M93.5548 120.766C94.8476 121.336 96.715 119.91 97.8642 117.629C99.0133 115.348 98.8697 112.924 97.5769 112.354C96.2841 111.783 94.4167 113.209 93.2675 115.49C92.1183 117.914 92.262 120.195 93.5548 120.766Z" fill="#5E4A8A"/>
        <path fill-rule="evenodd" clip-rule="evenodd" d="M118.557 120.766C119.85 120.195 119.994 117.771 118.845 115.49C117.695 113.209 115.828 111.783 114.535 112.353C113.242 112.924 113.099 115.348 114.248 117.629C115.253 120.053 117.265 121.478 118.557 120.766Z" fill="#5E4A8A"/>
        <path fill-rule="evenodd" clip-rule="evenodd" d="M128.315 62.5928C122.856 62.5928 118.547 66.8702 118.547 72.2883C118.547 77.7063 123 81.9838 128.315 81.9838C133.773 81.9838 138.083 77.5637 138.083 72.2883C138.083 66.8702 133.773 62.5928 128.315 62.5928Z" fill="#5E4A8A"/>
        <path fill-rule="evenodd" clip-rule="evenodd" d="M72.1555 134.311C72.0119 137.02 72.1555 139.729 72.8738 142.723C74.3102 149.282 77.7577 154.7 83.3599 159.12C89.6803 164.11 97.7245 166.962 106.056 166.962C114.387 166.962 122.432 164.252 128.752 159.262C134.354 154.842 137.802 149.424 139.238 142.865C139.956 140.014 140.1 137.162 139.956 134.596C135.791 143.436 122.144 149.994 106.056 149.994C89.9676 149.709 76.3213 143.151 72.1555 134.311Z" fill="#5E4A8A"/>
        <path fill-rule="evenodd" clip-rule="evenodd" d="M148.862 107.649C148.862 107.649 139.094 98.381 126.022 95.3868C127.602 96.3848 155.183 115.918 148.862 144.72C146.707 154.7 141.249 161.687 134.928 166.677C126.597 173.236 116.398 176.515 106.199 176.515C96.0004 176.515 85.8015 173.236 77.47 166.677C71.1496 161.687 65.6911 154.558 63.5364 144.72C57.216 115.918 84.796 96.3848 86.3761 95.3868C73.3043 98.381 63.5364 107.649 63.5364 107.649C27.3376 55.4642 76.1772 34.5048 106.343 52.0423C136.078 34.3623 185.061 55.4642 148.862 107.649Z" fill="#5E4A8A"/>
        <path fill-rule="evenodd" clip-rule="evenodd" d="M188.937 58.7432C186.639 48.4774 182.904 39.4948 177.877 31.9381C167.821 18.1077 144.551 14.1155 144.551 14.1155L154.75 10.6935C154.75 10.6935 154.75 10.6935 154.606 10.6935C133.49 0.855484 107.921 7.69936 107.921 7.69936L113.667 0H113.523C88.8161 0.570323 75.6007 12.2619 75.6007 12.2619L81.4902 1.99613C81.4902 1.99613 81.4901 1.99613 81.3465 1.99613C55.6339 10.551 44.5731 27.3755 44.5731 27.3755L47.7334 17.1097C35.5234 26.8052 27.192 40.6355 23.1699 58.6006C4.49591 56.4619 -25.2388 83.8374 40.4074 165.394C40.4074 165.394 38.9709 156.696 39.4019 151.991C39.4019 151.991 46.7278 169.814 67.4128 188.064C67.4128 188.064 65.8327 179.366 65.5454 176.23C65.5454 176.23 79.91 199.47 106.054 221C132.054 199.328 146.562 176.23 146.562 176.23C146.274 179.366 144.694 188.064 144.694 188.064C165.236 169.814 172.705 151.991 172.705 151.991C173.136 156.696 171.7 165.394 171.7 165.394C237.202 84.1226 207.468 56.7471 188.937 58.7432Z" fill="#5E4A8A"/>
        <path fill-rule="evenodd" clip-rule="evenodd" d="M126.02 95.3862C139.091 98.3804 148.859 107.648 148.859 107.648C185.058 55.4637 136.218 34.5043 106.053 52.0417C76.0308 34.5043 27.0475 55.6062 63.2463 107.648C63.2463 107.648 73.0142 98.3804 86.086 95.3862C84.5059 96.3843 56.9258 115.918 63.2463 144.719C65.401 154.7 70.8595 161.686 77.1799 166.677C85.5114 173.235 95.7103 176.515 105.909 176.515C116.108 176.515 126.307 173.235 134.638 166.677C140.959 161.686 146.417 154.557 148.572 144.719C155.18 115.775 127.6 96.3843 126.02 95.3862ZM128.318 62.5927C133.776 62.5927 138.086 66.8701 138.086 72.2882C138.086 77.7062 133.776 81.9837 128.318 81.9837C122.859 81.9837 118.55 77.5637 118.55 72.2882C118.55 66.8701 122.859 62.5927 128.318 62.5927ZM114.528 112.353C115.821 111.783 117.688 113.209 118.837 115.49C119.986 117.771 119.843 120.195 118.55 120.766C117.257 121.336 115.39 119.91 114.241 117.629C113.091 115.348 113.235 113.066 114.528 112.353ZM97.5777 112.353C98.8705 112.924 99.0141 115.348 97.8649 117.629C96.7158 119.91 94.8484 121.336 93.5556 120.766C92.2628 120.195 92.1191 117.771 93.2683 115.49C94.4174 113.209 96.2848 111.783 97.5777 112.353ZM83.7876 81.9837C78.3291 81.9837 74.0197 77.5637 74.0197 72.2882C74.0197 66.8701 78.3291 62.5927 83.7876 62.5927C89.2462 62.5927 93.5556 66.8701 93.5556 72.2882C93.5556 77.5637 89.2462 81.9837 83.7876 81.9837ZM139.953 134.311C140.097 136.877 139.953 139.729 139.235 142.58C137.799 149.139 134.351 154.557 128.749 158.977C122.428 163.968 114.384 166.677 106.053 166.677C97.7213 166.677 89.6771 163.968 83.3567 158.835C77.7545 154.415 74.307 148.997 72.8706 142.438C72.1523 139.586 72.0087 136.735 72.1523 134.026C76.3181 142.866 89.8208 149.424 106.053 149.424C122.141 149.709 135.787 143.151 139.953 134.311Z" fill="#FFFFFB"/>
        <path fill-rule="evenodd" clip-rule="evenodd" d="M21.8774 110.785C8.66201 98.3808 4.06533 85.406 8.08742 74.855C12.2531 64.0189 23.4575 64.7318 23.4575 64.7318C20.7283 72.2886 21.0156 87.9725 21.1592 88.6854L14.6951 82.8395C14.6951 82.8395 19.1482 102.943 25.0376 113.922L21.8774 110.785Z" fill="#FFFFFB"/>
        <path fill-rule="evenodd" clip-rule="evenodd" d="M190.948 88.6851C191.235 88.1148 191.379 72.4309 188.65 64.7316C188.65 64.7316 199.854 64.0187 204.02 74.8548C208.042 85.4058 203.445 98.3806 190.23 110.785L186.926 113.922C192.815 102.801 197.268 82.8393 197.268 82.8393L190.948 88.6851Z" fill="#FFFFFB"/>
    </symbol>
    <symbol id="practice" width="100" height="100" viewBox="0 0 100 100" fill="none" xmlns="http://www.w3.org/2000/svg">
        <rect width="100" height="100" rx="50" fill="#FFE2B0"/>
        <path d="M50.7031 31.7188C46.0427 31.7239 41.5746 33.5775 38.2792 36.8729C34.9837 40.1683 33.1301 44.6364 33.125 49.2969V64.1205C33.1259 64.8508 33.4164 65.5508 33.9328 66.0672C34.4492 66.5836 35.1492 66.8741 35.8795 66.875H50.7031C55.3651 66.875 59.8362 65.023 63.1327 61.7265C66.4293 58.4299 68.2812 53.9589 68.2812 49.2969C68.2812 44.6349 66.4293 40.1638 63.1327 36.8673C59.8362 33.5707 55.3651 31.7188 50.7031 31.7188ZM42.9688 52.1094C42.5516 52.1094 42.1437 51.9857 41.7968 51.7539C41.45 51.5221 41.1796 51.1927 41.0199 50.8072C40.8603 50.4218 40.8185 49.9977 40.8999 49.5885C40.9813 49.1793 41.1822 48.8034 41.4772 48.5084C41.7722 48.2134 42.1481 48.0125 42.5572 47.9312C42.9664 47.8498 43.3905 47.8915 43.776 48.0512C44.1614 48.2108 44.4909 48.4812 44.7226 48.8281C44.9544 49.175 45.0781 49.5828 45.0781 50C45.0781 50.5594 44.8559 51.096 44.4603 51.4916C44.0647 51.8871 43.5282 52.1094 42.9688 52.1094ZM50.7031 52.1094C50.2859 52.1094 49.8781 51.9857 49.5312 51.7539C49.1843 51.5221 48.914 51.1927 48.7543 50.8072C48.5947 50.4218 48.5529 49.9977 48.6343 49.5885C48.7157 49.1793 48.9166 48.8034 49.2116 48.5084C49.5066 48.2134 49.8824 48.0125 50.2916 47.9312C50.7008 47.8498 51.1249 47.8915 51.5103 48.0512C51.8958 48.2108 52.2252 48.4812 52.457 48.8281C52.6888 49.175 52.8125 49.5828 52.8125 50C52.8125 50.5594 52.5903 51.096 52.1947 51.4916C51.7991 51.8871 51.2626 52.1094 50.7031 52.1094ZM58.4375 52.1094C58.0203 52.1094 57.6125 51.9857 57.2656 51.7539C56.9187 51.5221 56.6483 51.1927 56.4887 50.8072C56.329 50.4218 56.2873 49.9977 56.3687 49.5885C56.45 49.1793 56.6509 48.8034 56.9459 48.5084C57.2409 48.2134 57.6168 48.0125 58.026 47.9312C58.4352 47.8498 58.8593 47.8915 59.2447 48.0512C59.6302 48.2108 59.9596 48.4812 60.1914 48.8281C60.4232 49.175 60.5469 49.5828 60.5469 50C60.5469 50.5594 60.3246 51.096 59.9291 51.4916C59.5335 51.8871 58.9969 52.1094 58.4375 52.1094Z" fill="#FFB025"/>
    </symbol>
    <symbol id="SmileyWink" width="42" height="42" viewBox="0 0 42 42" fill="none" xmlns="http://www.w3.org/2000/svg">
        <path opacity="0.2" d="M36.75 21C36.75 24.1151 35.8263 27.1602 34.0956 29.7502C32.365 32.3403 29.9052 34.359 27.0273 35.5511C24.1493 36.7432 20.9825 37.0551 17.9273 36.4474C14.8721 35.8396 12.0657 34.3396 9.86307 32.1369C7.66039 29.9343 6.16035 27.1279 5.55263 24.0727C4.94491 21.0175 5.25682 17.8507 6.4489 14.9727C7.64098 12.0948 9.65969 9.63499 12.2498 7.90435C14.8398 6.17372 17.8849 5.25 21 5.25C25.1772 5.25 29.1832 6.90937 32.1369 9.86307C35.0906 12.8168 36.75 16.8228 36.75 21Z" fill="#FFB025"/>
        <path d="M21 3.9375C17.6254 3.9375 14.3265 4.9382 11.5206 6.81305C8.71467 8.6879 6.52773 11.3527 5.23631 14.4705C3.94489 17.5882 3.60699 21.0189 4.26535 24.3287C4.92371 27.6385 6.54876 30.6788 8.93499 33.065C11.3212 35.4512 14.3615 37.0763 17.6713 37.7346C20.9811 38.393 24.4118 38.0551 27.5295 36.7637C30.6473 35.4723 33.3121 33.2853 35.187 30.4794C37.0618 27.6735 38.0625 24.3746 38.0625 21C38.0577 16.4762 36.2585 12.1391 33.0597 8.94027C29.8609 5.74146 25.5238 3.94228 21 3.9375ZM21 35.4375C18.1445 35.4375 15.3532 34.5908 12.979 33.0043C10.6047 31.4179 8.75423 29.1631 7.66149 26.525C6.56875 23.8869 6.28284 20.984 6.83991 18.1834C7.39699 15.3828 8.77203 12.8103 10.7911 10.7911C12.8103 8.77203 15.3828 7.39699 18.1834 6.83991C20.984 6.28284 23.8869 6.56875 26.525 7.66149C29.1631 8.75423 31.4179 10.6047 33.0043 12.979C34.5908 15.3532 35.4375 18.1445 35.4375 21C35.4332 24.8277 33.9107 28.4974 31.2041 31.2041C28.4974 33.9107 24.8277 35.4332 21 35.4375ZM13.125 17.7188C13.125 17.3294 13.2405 16.9487 13.4568 16.625C13.6731 16.3012 13.9806 16.0489 14.3403 15.8999C14.7001 15.7509 15.0959 15.7119 15.4778 15.7878C15.8597 15.8638 16.2105 16.0513 16.4859 16.3266C16.7612 16.602 16.9487 16.9528 17.0247 17.3347C17.1006 17.7166 17.0616 18.1124 16.9126 18.4722C16.7636 18.8319 16.5113 19.1394 16.1875 19.3557C15.8638 19.572 15.4831 19.6875 15.0937 19.6875C14.5716 19.6875 14.0708 19.4801 13.7016 19.1109C13.3324 18.7417 13.125 18.2409 13.125 17.7188ZM30.1875 17.7188C30.1875 18.0668 30.0492 18.4007 29.8031 18.6468C29.5569 18.893 29.2231 19.0312 28.875 19.0312H24.9375C24.5894 19.0312 24.2556 18.893 24.0094 18.6468C23.7633 18.4007 23.625 18.0668 23.625 17.7188C23.625 17.3707 23.7633 17.0368 24.0094 16.7907C24.2556 16.5445 24.5894 16.4062 24.9375 16.4062H28.875C29.2231 16.4062 29.5569 16.5445 29.8031 16.7907C30.0492 17.0368 30.1875 17.3707 30.1875 17.7188ZM28.6978 25.5938C27.0096 28.5124 24.2041 30.1875 21 30.1875C17.7959 30.1875 14.9904 28.5141 13.3022 25.5938C13.2072 25.4444 13.1435 25.2773 13.1147 25.1026C13.086 24.928 13.0929 24.7493 13.135 24.5774C13.1771 24.4054 13.2536 24.2438 13.3598 24.1022C13.466 23.9606 13.5997 23.8419 13.753 23.7533C13.9062 23.6647 14.0758 23.608 14.2516 23.5867C14.4273 23.5654 14.6055 23.5798 14.7755 23.6291C14.9455 23.6784 15.1038 23.7616 15.2408 23.8737C15.3778 23.9858 15.4908 24.1244 15.5728 24.2812C16.7984 26.3993 18.7245 27.5625 21 27.5625C23.2755 27.5625 25.2016 26.3977 26.4272 24.2812C26.5092 24.1244 26.6222 23.9858 26.7592 23.8737C26.8962 23.7616 27.0545 23.6784 27.2245 23.6291C27.3945 23.5798 27.5727 23.5654 27.7484 23.5867C27.9242 23.608 28.0938 23.6647 28.247 23.7533C28.4003 23.8419 28.534 23.9606 28.6402 24.1022C28.7464 24.2438 28.8229 24.4054 28.865 24.5774C28.9071 24.7493 28.914 24.928 28.8853 25.1026C28.8565 25.2773 28.7928 25.4444 28.6978 25.5938Z" fill="#FFB025"/>
    </symbol>
    <symbol id="Star" width="42" height="42" viewBox="0 0 42 42" fill="none" xmlns="http://www.w3.org/2000/svg">
        <path opacity="0.2" d="M30.2088 24.232C30.0289 24.39 29.8952 24.5938 29.8218 24.8217C29.7485 25.0497 29.7382 25.2932 29.7921 25.5265L32.0102 35.1307C32.0688 35.3815 32.0523 35.6441 31.9628 35.8856C31.8732 36.1272 31.7146 36.337 31.5066 36.489C31.2986 36.641 31.0505 36.7285 30.7932 36.7404C30.5359 36.7524 30.2807 36.6884 30.0595 36.5564L21.6759 31.4705C21.4722 31.3466 21.2384 31.2811 21 31.2811C20.7616 31.2811 20.5278 31.3466 20.324 31.4705L11.9405 36.5564C11.7192 36.6884 11.4641 36.7524 11.2068 36.7404C10.9494 36.7285 10.7013 36.641 10.4934 36.489C10.2854 36.337 10.1267 36.1272 10.0372 35.8856C9.94763 35.6441 9.93113 35.3815 9.98975 35.1307L12.2079 25.5265C12.2618 25.2932 12.2515 25.0497 12.1781 24.8217C12.1048 24.5938 11.971 24.39 11.7912 24.232L4.3903 17.7762C4.19244 17.608 4.04891 17.3849 3.97787 17.1352C3.90683 16.8854 3.91147 16.6202 3.99121 16.373C4.07095 16.1259 4.2222 15.908 4.42583 15.7469C4.62946 15.5857 4.8763 15.4886 5.13514 15.4678L14.8903 14.6245C15.1283 14.6033 15.356 14.5176 15.5488 14.3765C15.7417 14.2354 15.8923 14.0443 15.9846 13.8239L19.7958 4.7414C19.8976 4.50658 20.0658 4.30664 20.2797 4.1662C20.4937 4.02575 20.7441 3.95093 21 3.95093C21.2559 3.95093 21.5063 4.02575 21.7202 4.1662C21.9342 4.30664 22.1024 4.50658 22.2042 4.7414L26.0154 13.8239C26.1076 14.0443 26.2583 14.2354 26.4511 14.3765C26.644 14.5176 26.8717 14.6033 27.1097 14.6245L36.8648 15.4678C37.1237 15.4886 37.3705 15.5857 37.5741 15.7469C37.7778 15.908 37.929 16.1259 38.0088 16.373C38.0885 16.6202 38.0931 16.8854 38.0221 17.1352C37.9511 17.3849 37.8075 17.608 37.6097 17.7762L30.2088 24.232Z" fill="#D72D5C"/>
        <path d="M39.2437 15.9617C39.0848 15.4718 38.7852 15.0394 38.3824 14.7185C37.9795 14.3976 37.4911 14.2023 36.978 14.157L27.2344 13.317L23.415 4.23449C23.2161 3.75792 22.8807 3.35083 22.451 3.06449C22.0213 2.77815 21.5164 2.62537 21 2.62537C20.4836 2.62537 19.9787 2.77815 19.549 3.06449C19.1193 3.35083 18.7839 3.75792 18.585 4.23449L14.7771 13.317L5.02195 14.1619C4.50686 14.2052 4.016 14.3996 3.61095 14.7207C3.20589 15.0419 2.90467 15.4755 2.74505 15.9671C2.58543 16.4588 2.57452 16.9866 2.71369 17.4844C2.85285 17.9822 3.1359 18.4279 3.52734 18.7655L10.9282 25.2329L8.71008 34.8371C8.59279 35.3397 8.62626 35.8657 8.8063 36.3494C8.98634 36.833 9.30496 37.2529 9.72233 37.5565C10.1397 37.8601 10.6373 38.0339 11.1529 38.0562C11.6685 38.0785 12.1793 37.9483 12.6213 37.6819L20.9885 32.596L29.3737 37.6819C29.8158 37.9483 30.3265 38.0785 30.8422 38.0562C31.3578 38.0339 31.8554 37.8601 32.2727 37.5565C32.6901 37.2529 33.0087 36.833 33.1888 36.3494C33.3688 35.8657 33.4023 35.3397 33.285 34.8371L31.0685 25.223L38.4677 18.7655C38.8591 18.4267 39.1416 17.9798 39.2797 17.4809C39.4178 16.982 39.4053 16.4535 39.2437 15.9617ZM36.7467 16.782L29.3475 23.2395C28.9874 23.5527 28.7195 23.9583 28.5726 24.4124C28.4258 24.8665 28.4055 25.3521 28.5141 25.8169L30.7371 35.4375L22.3584 30.3516C21.9497 30.1027 21.4803 29.971 21.0016 29.971C20.523 29.971 20.0536 30.1027 19.6448 30.3516L11.2777 35.4375L13.4859 25.8235C13.5945 25.3587 13.5742 24.8731 13.4274 24.419C13.2805 23.9648 13.0126 23.5593 12.6525 23.2461L5.25 16.7918C5.2494 16.7869 5.2494 16.782 5.25 16.7771L15.0019 15.9338C15.478 15.8918 15.9336 15.7207 16.3196 15.4388C16.7056 15.1569 17.0073 14.7749 17.1921 14.3342L21 5.26316L24.8062 14.3342C24.9911 14.7749 25.2928 15.1569 25.6788 15.4388C26.0648 15.7207 26.5204 15.8918 26.9965 15.9338L36.75 16.7771C36.75 16.7771 36.75 16.7869 36.75 16.7886L36.7467 16.782Z" fill="#D72D5C"/>
    </symbol>
    <symbol id="SuitcaseSimple" width="32" height="32" viewBox="0 0 32 32" fill="none" xmlns="http://www.w3.org/2000/svg">
        <path opacity="0.2" d="M28 19V25C28 25.2652 27.8946 25.5196 27.7071 25.7071C27.5196 25.8946 27.2652 26 27 26H5C4.73478 26 4.48043 25.8946 4.29289 25.7071C4.10536 25.5196 4 25.2652 4 25V19H28Z" fill="#FBFCFA"/>
        <path d="M27 7H22V6C22 5.20435 21.6839 4.44129 21.1213 3.87868C20.5587 3.31607 19.7956 3 19 3H13C12.2044 3 11.4413 3.31607 10.8787 3.87868C10.3161 4.44129 10 5.20435 10 6V7H5C4.46957 7 3.96086 7.21071 3.58579 7.58579C3.21071 7.96086 3 8.46957 3 9V25C3 25.5304 3.21071 26.0391 3.58579 26.4142C3.96086 26.7893 4.46957 27 5 27H27C27.5304 27 28.0391 26.7893 28.4142 26.4142C28.7893 26.0391 29 25.5304 29 25V9C29 8.46957 28.7893 7.96086 28.4142 7.58579C28.0391 7.21071 27.5304 7 27 7ZM12 6C12 5.73478 12.1054 5.48043 12.2929 5.29289C12.4804 5.10536 12.7348 5 13 5H19C19.2652 5 19.5196 5.10536 19.7071 5.29289C19.8946 5.48043 20 5.73478 20 6V7H12V6ZM27 9V18H5V9H27ZM27 25H5V20H27V25Z" fill="#FBFCFA"/>
    </symbol>
    <symbol id="Users" width="32" height="32" viewBox="0 0 32 32" fill="none" xmlns="http://www.w3.org/2000/svg">
        <path opacity="0.2" d="M17 13.5C17 14.7856 16.6188 16.0423 15.9046 17.1112C15.1903 18.1801 14.1752 19.0132 12.9874 19.5052C11.7997 19.9972 10.4928 20.1259 9.23192 19.8751C7.97104 19.6243 6.81285 19.0052 5.90381 18.0962C4.99477 17.1872 4.3757 16.029 4.1249 14.7681C3.87409 13.5072 4.00282 12.2003 4.49479 11.0126C4.98676 9.82484 5.81988 8.80968 6.8888 8.09545C7.95772 7.38122 9.21442 7 10.5 7C12.2239 7 13.8772 7.68482 15.0962 8.90381C16.3152 10.1228 17 11.7761 17 13.5Z" fill="#FBFCFA"/>
        <path d="M14.6563 19.7401C15.9965 18.8479 17.014 17.548 17.5584 16.0327C18.1027 14.5174 18.145 12.8671 17.6789 11.326C17.2128 9.78483 16.2631 8.43458 14.9703 7.4749C13.6775 6.51522 12.1101 5.99707 10.5 5.99707C8.88991 5.99707 7.32255 6.51522 6.02972 7.4749C4.73688 8.43458 3.7872 9.78483 3.32111 11.326C2.85503 12.8671 2.89728 14.5174 3.44162 16.0327C3.98597 17.548 5.0035 18.8479 6.34375 19.7401C3.91937 20.6337 1.84888 22.2872 0.441251 24.4539C0.367271 24.5638 0.315884 24.6874 0.290078 24.8174C0.264271 24.9474 0.26456 25.0812 0.290928 25.2111C0.317295 25.3409 0.369215 25.4643 0.443669 25.5739C0.518124 25.6835 0.613627 25.7773 0.724629 25.8497C0.835631 25.9221 0.959916 25.9717 1.09026 25.9956C1.22061 26.0196 1.35441 26.0174 1.4839 25.9892C1.61338 25.9609 1.73597 25.9073 1.84452 25.8312C1.95308 25.7552 2.04545 25.6584 2.11625 25.5464C3.02424 24.1498 4.2667 23.0023 5.7308 22.2078C7.1949 21.4134 8.83426 20.9973 10.5 20.9973C12.1657 20.9973 13.8051 21.4134 15.2692 22.2078C16.7333 23.0023 17.9758 24.1498 18.8838 25.5464C19.0304 25.7644 19.257 25.9159 19.5145 25.9681C19.772 26.0204 20.0397 25.9692 20.2597 25.8257C20.4798 25.6822 20.6345 25.4578 20.6905 25.2011C20.7464 24.9444 20.6991 24.676 20.5588 24.4539C19.1511 22.2872 17.0806 20.6337 14.6563 19.7401ZM5 13.5001C5 12.4123 5.32257 11.3489 5.92692 10.4445C6.53127 9.54001 7.39025 8.83506 8.39524 8.41878C9.40024 8.00249 10.5061 7.89358 11.573 8.10579C12.6399 8.31801 13.6199 8.84184 14.3891 9.61103C15.1583 10.3802 15.6821 11.3602 15.8943 12.4271C16.1065 13.494 15.9976 14.5999 15.5813 15.6049C15.1651 16.6099 14.4601 17.4688 13.5556 18.0732C12.6512 18.6775 11.5878 19.0001 10.5 19.0001C9.04182 18.9985 7.64383 18.4185 6.61274 17.3874C5.58165 16.3563 5.00166 14.9583 5 13.5001ZM31.2675 25.8376C31.0454 25.9825 30.7748 26.0331 30.5153 25.9785C30.2558 25.9239 30.0286 25.7685 29.8838 25.5464C28.9769 24.149 27.7346 23.0009 26.2702 22.2068C24.8058 21.4127 23.1659 20.9979 21.5 21.0001C21.2348 21.0001 20.9804 20.8948 20.7929 20.7072C20.6054 20.5197 20.5 20.2653 20.5 20.0001C20.5 19.7349 20.6054 19.4805 20.7929 19.293C20.9804 19.1055 21.2348 19.0001 21.5 19.0001C22.31 18.9993 23.1098 18.8197 23.8422 18.474C24.5747 18.1283 25.2218 17.6251 25.7373 17.0003C26.2527 16.3756 26.6239 15.6447 26.8241 14.8598C27.0243 14.075 27.0488 13.2557 26.8956 12.4603C26.7425 11.6649 26.4156 10.9132 25.9383 10.2589C25.4609 9.60449 24.845 9.06362 24.1344 8.6749C23.4238 8.28619 22.6361 8.05921 21.8276 8.0102C21.0192 7.96118 20.2098 8.09134 19.4575 8.39136C19.3348 8.44439 19.2028 8.47229 19.0691 8.47342C18.9355 8.47455 18.803 8.44889 18.6795 8.39794C18.5559 8.34699 18.4438 8.2718 18.3498 8.1768C18.2559 8.0818 18.1819 7.96893 18.1322 7.84485C18.0826 7.72077 18.0583 7.588 18.0609 7.45439C18.0634 7.32077 18.0927 7.18903 18.1471 7.06693C18.2014 6.94483 18.2796 6.83486 18.3772 6.74352C18.4747 6.65218 18.5896 6.58131 18.715 6.53511C20.4368 5.84843 22.352 5.82372 24.0909 6.46575C25.8299 7.10778 27.2695 8.37106 28.132 10.0119C28.9945 11.6527 29.2188 13.5548 28.7616 15.3513C28.3044 17.1477 27.1982 18.7112 25.6563 19.7401C28.0806 20.6337 30.1511 22.2872 31.5588 24.4539C31.7036 24.676 31.7543 24.9466 31.6997 25.2061C31.6451 25.4655 31.4896 25.6927 31.2675 25.8376Z" fill="#FBFCFA"/>
    </symbol>
</svg>