<svg width="70" height="70" viewBox="0 0 70 70" fill="none" xmlns="http://www.w3.org/2000/svg">
<rect width="70" height="70" rx="35" fill="#D72D5C" fill-opacity="0.1"/>
<path d="M45 24V45H38V24H45Z" fill="#D72D5C"/>
<path d="M47 44H46V24C46 23.7348 45.8946 23.4804 45.7071 23.2929C45.5196 23.1054 45.2652 23 45 23H38C37.7348 23 37.4804 23.1054 37.2929 23.2929C37.1054 23.4804 37 23.7348 37 24V29H31C30.7348 29 30.4804 29.1054 30.2929 29.2929C30.1054 29.4804 30 29.7348 30 30V35H25C24.7348 35 24.4804 35.1054 24.2929 35.2929C24.1054 35.4804 24 35.7348 24 36V44H23C22.7348 44 22.4804 44.1054 22.2929 44.2929C22.1054 44.4804 22 44.7348 22 45C22 45.2652 22.1054 45.5196 22.2929 45.7071C22.4804 45.8946 22.7348 46 23 46H47C47.2652 46 47.5196 45.8946 47.7071 45.7071C47.8946 45.5196 48 45.2652 48 45C48 44.7348 47.8946 44.4804 47.7071 44.2929C47.5196 44.1054 47.2652 44 47 44ZM39 25H44V44H39V25ZM32 31H37V44H32V31ZM26 37H30V44H26V37Z" fill="#D72D5C"/>
</svg>
