<svg width="70" height="70" viewBox="0 0 70 70" fill="none" xmlns="http://www.w3.org/2000/svg">
<rect width="70" height="70" rx="35" fill="#0078A7" fill-opacity="0.1"/>
<path d="M41.2659 29L34.9996 35L28.7334 29H41.2659Z" fill="#0078A7"/>
<path d="M45.3976 43.57L36.4463 35L45.3976 26.43C45.4026 26.4243 45.4081 26.4188 45.4138 26.4138C45.6933 26.134 45.8837 25.7778 45.9607 25.3899C46.0378 25.0021 45.9982 24.6001 45.8469 24.2348C45.6956 23.8694 45.4394 23.5571 45.1107 23.3374C44.782 23.1176 44.3955 23.0002 44.0001 23H26.0001C25.6046 23.0002 25.2181 23.1176 24.8894 23.3374C24.5607 23.5571 24.3045 23.8694 24.1532 24.2348C24.0019 24.6001 23.9623 25.0021 24.0394 25.3899C24.1165 25.7778 24.3068 26.134 24.5863 26.4138C24.592 26.4188 24.5975 26.4243 24.6026 26.43L33.5538 35L24.6026 43.57C24.5975 43.5757 24.592 43.5812 24.5863 43.5863C24.3068 43.866 24.1165 44.2222 24.0394 44.6101C23.9623 44.9979 24.0019 45.3999 24.1532 45.7652C24.3045 46.1306 24.5607 46.4429 24.8894 46.6626C25.2181 46.8824 25.6046 46.9998 26.0001 47H44.0001C44.3956 47.0001 44.7823 46.8828 45.1112 46.6632C45.4401 46.4435 45.6965 46.1312 45.8479 45.7658C45.9994 45.4004 46.0391 44.9983 45.9621 44.6104C45.885 44.2224 45.6946 43.866 45.4151 43.5863C45.4089 43.5812 45.4031 43.5758 45.3976 43.57ZM31.2238 30H38.7763L35.0001 33.615L31.2238 30ZM44.0001 25L40.8651 28H29.1351L26.0001 25H44.0001ZM26.0001 45L34.0001 37.3425V40C34.0001 40.2652 34.1054 40.5196 34.2929 40.7071C34.4805 40.8946 34.7348 41 35.0001 41C35.2653 41 35.5196 40.8946 35.7072 40.7071C35.8947 40.5196 36.0001 40.2652 36.0001 40V37.3425L44.0001 45H26.0001Z" fill="#0078A7"/>
</svg>
