<svg width="25" height="26" viewBox="0 0 25 26" fill="none" xmlns="http://www.w3.org/2000/svg">
<g opacity="0.9">
<rect y="0.5" width="25" height="25" rx="12.5" fill="#FBFCFA"/>
<path d="M18.5306 13.5306L14.0306 18.0306C13.8897 18.1715 13.6986 18.2507 13.4994 18.2507C13.3001 18.2507 13.109 18.1715 12.9681 18.0306C12.8272 17.8897 12.7481 17.6986 12.7481 17.4994C12.7481 17.3001 12.8272 17.109 12.9681 16.9681L16.1875 13.75H7C6.80109 13.75 6.61032 13.671 6.46967 13.5303C6.32902 13.3897 6.25 13.1989 6.25 13C6.25 12.8011 6.32902 12.6103 6.46967 12.4697C6.61032 12.329 6.80109 12.25 7 12.25H16.1875L12.9694 9.02999C12.8285 8.88909 12.7493 8.69799 12.7493 8.49874C12.7493 8.29948 12.8285 8.10838 12.9694 7.96749C13.1103 7.82659 13.3014 7.74744 13.5006 7.74744C13.6999 7.74744 13.891 7.82659 14.0319 7.96749L18.5319 12.4675C18.6018 12.5373 18.6573 12.6202 18.6951 12.7114C18.7329 12.8027 18.7523 12.9005 18.7522 12.9993C18.752 13.0981 18.7324 13.1959 18.6944 13.2871C18.6564 13.3782 18.6007 13.461 18.5306 13.5306Z" fill="#5F4B8B"/>
</g>
</svg>
