<svg width="100" height="100" viewBox="0 0 100 100" fill="none" xmlns="http://www.w3.org/2000/svg">
<rect width="100" height="100" rx="50" fill="#A3CEDF"/>
<path d="M54.2188 47.1875C54.2188 47.5605 54.0706 47.9181 53.8069 48.1819C53.5431 48.4456 53.1855 48.5938 52.8125 48.5938H47.1875C46.8145 48.5938 46.4569 48.4456 46.1931 48.1819C45.9294 47.9181 45.7812 47.5605 45.7812 47.1875C45.7812 46.8145 45.9294 46.4569 46.1931 46.1931C46.4569 45.9294 46.8145 45.7812 47.1875 45.7812H52.8125C53.1855 45.7812 53.5431 45.9294 53.8069 46.1931C54.0706 46.4569 54.2188 46.8145 54.2188 47.1875ZM68.2812 40.1562V62.6562C68.2812 63.4022 67.9849 64.1175 67.4575 64.645C66.93 65.1724 66.2147 65.4688 65.4688 65.4688H34.5312C33.7853 65.4688 33.07 65.1724 32.5425 64.645C32.0151 64.1175 31.7188 63.4022 31.7188 62.6562V40.1562C31.7188 39.4103 32.0151 38.695 32.5425 38.1675C33.07 37.6401 33.7853 37.3438 34.5312 37.3438H41.5625V35.9375C41.5625 34.8186 42.007 33.7456 42.7981 32.9544C43.5893 32.1632 44.6624 31.7188 45.7812 31.7188H54.2188C55.3376 31.7188 56.4107 32.1632 57.2019 32.9544C57.993 33.7456 58.4375 34.8186 58.4375 35.9375V37.3438H65.4688C66.2147 37.3438 66.93 37.6401 67.4575 38.1675C67.9849 38.695 68.2812 39.4103 68.2812 40.1562ZM44.375 37.3438H55.625V35.9375C55.625 35.5645 55.4768 35.2069 55.2131 34.9431C54.9494 34.6794 54.5917 34.5312 54.2188 34.5312H45.7812C45.4083 34.5312 45.0506 34.6794 44.7869 34.9431C44.5232 35.2069 44.375 35.5645 44.375 35.9375V37.3438ZM65.4688 47.4705V40.1562H34.5312V47.4705C39.2777 50.0541 44.5959 51.4072 50 51.4062C55.4041 51.4072 60.7223 50.0541 65.4688 47.4705Z" fill="#0078A7"/>
</svg>
