<svg width="100" height="100" viewBox="0 0 100 100" fill="none" xmlns="http://www.w3.org/2000/svg">
<rect width="100" height="100" rx="50" fill="#FFE2B0"/>
<path d="M50.7031 31.7188C46.0427 31.7239 41.5746 33.5775 38.2792 36.8729C34.9837 40.1683 33.1301 44.6364 33.125 49.2969V64.1205C33.1259 64.8508 33.4164 65.5508 33.9328 66.0672C34.4492 66.5836 35.1492 66.8741 35.8795 66.875H50.7031C55.3651 66.875 59.8362 65.023 63.1327 61.7265C66.4293 58.4299 68.2812 53.9589 68.2812 49.2969C68.2812 44.6349 66.4293 40.1638 63.1327 36.8673C59.8362 33.5707 55.3651 31.7188 50.7031 31.7188ZM42.9688 52.1094C42.5516 52.1094 42.1437 51.9857 41.7968 51.7539C41.45 51.5221 41.1796 51.1927 41.0199 50.8072C40.8603 50.4218 40.8185 49.9977 40.8999 49.5885C40.9813 49.1793 41.1822 48.8034 41.4772 48.5084C41.7722 48.2134 42.1481 48.0125 42.5572 47.9312C42.9664 47.8498 43.3905 47.8915 43.776 48.0512C44.1614 48.2108 44.4909 48.4812 44.7226 48.8281C44.9544 49.175 45.0781 49.5828 45.0781 50C45.0781 50.5594 44.8559 51.096 44.4603 51.4916C44.0647 51.8871 43.5282 52.1094 42.9688 52.1094ZM50.7031 52.1094C50.2859 52.1094 49.8781 51.9857 49.5312 51.7539C49.1843 51.5221 48.914 51.1927 48.7543 50.8072C48.5947 50.4218 48.5529 49.9977 48.6343 49.5885C48.7157 49.1793 48.9166 48.8034 49.2116 48.5084C49.5066 48.2134 49.8824 48.0125 50.2916 47.9312C50.7008 47.8498 51.1249 47.8915 51.5103 48.0512C51.8958 48.2108 52.2252 48.4812 52.457 48.8281C52.6888 49.175 52.8125 49.5828 52.8125 50C52.8125 50.5594 52.5903 51.096 52.1947 51.4916C51.7991 51.8871 51.2626 52.1094 50.7031 52.1094ZM58.4375 52.1094C58.0203 52.1094 57.6125 51.9857 57.2656 51.7539C56.9187 51.5221 56.6483 51.1927 56.4887 50.8072C56.329 50.4218 56.2873 49.9977 56.3687 49.5885C56.45 49.1793 56.6509 48.8034 56.9459 48.5084C57.2409 48.2134 57.6168 48.0125 58.026 47.9312C58.4352 47.8498 58.8593 47.8915 59.2447 48.0512C59.6302 48.2108 59.9596 48.4812 60.1914 48.8281C60.4232 49.175 60.5469 49.5828 60.5469 50C60.5469 50.5594 60.3246 51.096 59.9291 51.4916C59.5335 51.8871 58.9969 52.1094 58.4375 52.1094Z" fill="#FFB025"/>
</svg>
