<svg width="100" height="100" viewBox="0 0 100 100" fill="none" xmlns="http://www.w3.org/2000/svg">
<rect width="100" height="100" rx="50" fill="#F7D5DE"/>
<path d="M57.3072 40.26C56.0346 37.2804 53.7721 34.8317 50.9023 33.3278C48.0325 31.824 44.7314 31.3572 41.5571 32.0064C38.3828 32.6557 35.5301 34.3811 33.4813 36.891C31.4324 39.4009 30.3131 42.5413 30.3125 45.7813V57.3829C30.3125 58.0355 30.5718 58.6615 31.0333 59.123C31.4948 59.5845 32.1208 59.8438 32.7734 59.8438H42.735C43.8323 62.3498 45.6356 64.4821 47.9246 65.9804C50.2135 67.4788 52.8892 68.2782 55.625 68.2813H67.2266C67.8792 68.2813 68.5052 68.022 68.9667 67.5605C69.4282 67.099 69.6875 66.473 69.6875 65.8204V54.2188C69.6868 50.781 68.4269 47.4625 66.1457 44.8905C63.8646 42.3185 60.7204 40.6712 57.3072 40.26ZM66.875 65.4688H55.625C53.6357 65.4665 51.6824 64.938 49.9634 63.9368C48.2445 62.9356 46.821 61.4974 45.8375 59.7682C47.7636 59.5683 49.6275 58.9725 51.3124 58.0181C52.9972 57.0637 54.4666 55.7713 55.6283 54.222C56.79 52.6728 57.6189 50.9001 58.063 49.0153C58.5071 47.1305 58.5568 45.1743 58.209 43.2694C60.6757 43.8515 62.8735 45.2495 64.4464 47.2368C66.0193 49.2241 66.875 51.6843 66.875 54.2188V65.4688Z" fill="#D72D5C"/>
</svg>
