<svg width="42" height="42" viewBox="0 0 42 42" fill="none" xmlns="http://www.w3.org/2000/svg">
<path opacity="0.2" d="M34.125 21V32.8125C34.125 33.1606 33.9867 33.4944 33.7406 33.7406C33.4944 33.9867 33.1606 34.125 32.8125 34.125H9.1875C8.8394 34.125 8.50556 33.9867 8.25942 33.7406C8.01328 33.4944 7.875 33.1606 7.875 32.8125V21H34.125Z" fill="#0078A7"/>
<path d="M35.4375 11.8125H29.6822C29.7462 11.7583 29.8118 11.7058 29.8741 11.6484C30.3724 11.2057 30.774 10.665 31.0537 10.06C31.3335 9.45508 31.4854 8.7989 31.5 8.13255C31.5216 7.40358 31.3939 6.67789 31.1248 6.00004C30.8558 5.3222 30.451 4.70649 29.9354 4.19073C29.4198 3.67496 28.8042 3.27003 28.1265 3.00077C27.4487 2.73152 26.723 2.60364 25.9941 2.62497C25.3274 2.63933 24.6709 2.79114 24.0657 3.0709C23.4604 3.35067 22.9194 3.75236 22.4766 4.25083C21.8638 4.96105 21.3656 5.76257 21 6.62646C20.6344 5.76257 20.1362 4.96105 19.5234 4.25083C19.0806 3.75236 18.5396 3.35067 17.9343 3.0709C17.3291 2.79114 16.6726 2.63933 16.0059 2.62497C15.277 2.60364 14.5513 2.73152 13.8735 3.00077C13.1958 3.27003 12.5802 3.67496 12.0646 4.19073C11.549 4.70649 11.1442 5.3222 10.8752 6.00004C10.6061 6.67789 10.4784 7.40358 10.5 8.13255C10.5146 8.7989 10.6665 9.45508 10.9463 10.06C11.226 10.665 11.6276 11.2057 12.1259 11.6484C12.1882 11.7025 12.2538 11.755 12.3178 11.8125H6.5625C5.86631 11.8125 5.19863 12.089 4.70634 12.5813C4.21406 13.0736 3.9375 13.7413 3.9375 14.4375V19.6875C3.9375 20.3837 4.21406 21.0513 4.70634 21.5436C5.19863 22.0359 5.86631 22.3125 6.5625 22.3125V32.8125C6.5625 33.5087 6.83906 34.1763 7.33134 34.6686C7.82363 35.1609 8.49131 35.4375 9.1875 35.4375H32.8125C33.5087 35.4375 34.1764 35.1609 34.6687 34.6686C35.1609 34.1763 35.4375 33.5087 35.4375 32.8125V22.3125C36.1337 22.3125 36.8014 22.0359 37.2937 21.5436C37.7859 21.0513 38.0625 20.3837 38.0625 19.6875V14.4375C38.0625 13.7413 37.7859 13.0736 37.2937 12.5813C36.8014 12.089 36.1337 11.8125 35.4375 11.8125ZM24.4453 5.98989C24.6531 5.7604 24.9061 5.57636 25.1885 5.44931C25.4708 5.32226 25.7764 5.25495 26.0859 5.25161H26.1663C26.5292 5.25388 26.8879 5.32855 27.2216 5.47124C27.5552 5.61394 27.857 5.82179 28.1092 6.08261C28.3615 6.34344 28.5592 6.65199 28.6907 6.99019C28.8222 7.32839 28.8848 7.68943 28.875 8.05216C28.8717 8.36174 28.8044 8.66729 28.6773 8.94962C28.5503 9.23195 28.3662 9.48497 28.1367 9.69278C26.5798 11.0709 23.9958 11.5565 22.3945 11.7272C22.5914 9.98974 23.1328 7.46481 24.4453 5.98989ZM13.9305 6.04896C14.439 5.54051 15.1277 5.25337 15.8468 5.24997H15.9272C16.2368 5.25331 16.5423 5.32062 16.8246 5.44767C17.107 5.57472 17.36 5.75876 17.5678 5.98825C18.9443 7.54356 19.4299 10.1226 19.6005 11.7173C18.0059 11.5533 15.4268 11.0611 13.8715 9.68458C13.642 9.47677 13.4579 9.22375 13.3309 8.94142C13.2038 8.65909 13.1365 8.35354 13.1332 8.04395C13.123 7.6752 13.1879 7.30822 13.3238 6.96528C13.4597 6.62235 13.6639 6.3106 13.924 6.04896H13.9305ZM6.5625 14.4375H19.6875V19.6875H6.5625V14.4375ZM9.1875 22.3125H19.6875V32.8125H9.1875V22.3125ZM32.8125 32.8125H22.3125V22.3125H32.8125V32.8125ZM35.4375 19.6875H22.3125V14.4375H35.4375V19.6875Z" fill="#0078A7"/>
</svg>
