<svg width="32" height="32" viewBox="0 0 32 32" fill="none" xmlns="http://www.w3.org/2000/svg">
<path opacity="0.2" d="M22.2662 10L16 16L9.73375 10H22.2662Z" fill="#FBFCFA"/>
<path d="M26.3975 24.57L17.4463 16L26.3975 7.43C26.4026 7.42427 26.408 7.41885 26.4138 7.41375C26.6933 7.13405 26.8836 6.77777 26.9607 6.38993C27.0378 6.00209 26.9982 5.6001 26.8469 5.23476C26.6956 4.86942 26.4394 4.55713 26.1107 4.33736C25.7819 4.11758 25.3954 4.00018 25 4H7C6.60457 4.00018 6.21807 4.11758 5.88935 4.33736C5.56062 4.55713 5.30442 4.86942 5.15312 5.23476C5.00182 5.6001 4.96221 6.00209 5.03931 6.38993C5.1164 6.77777 5.30673 7.13405 5.58625 7.41375C5.59198 7.41885 5.5974 7.42427 5.6025 7.43L14.5538 16L5.6025 24.57C5.5974 24.5757 5.59198 24.5812 5.58625 24.5863C5.30673 24.866 5.1164 25.2222 5.03931 25.6101C4.96221 25.9979 5.00182 26.3999 5.15312 26.7652C5.30442 27.1306 5.56062 27.4429 5.88935 27.6626C6.21807 27.8824 6.60457 27.9998 7 28H25C25.3955 28.0001 25.7822 27.8828 26.1111 27.6632C26.44 27.4435 26.6964 27.1312 26.8479 26.7658C26.9993 26.4004 27.0391 25.9983 26.962 25.6104C26.885 25.2224 26.6946 24.866 26.415 24.5863C26.4088 24.5812 26.403 24.5758 26.3975 24.57ZM12.2238 11H19.7763L16 14.615L12.2238 11ZM25 6L21.865 9H10.135L7 6H25ZM7 26L15 18.3425V21C15 21.2652 15.1054 21.5196 15.2929 21.7071C15.4804 21.8946 15.7348 22 16 22C16.2652 22 16.5196 21.8946 16.7071 21.7071C16.8946 21.5196 17 21.2652 17 21V18.3425L25 26H7Z" fill="#FBFCFA"/>
</svg>
