<svg width="42" height="42" viewBox="0 0 42 42" fill="none" xmlns="http://www.w3.org/2000/svg">
<path opacity="0.2" d="M15.75 39.375L18.375 26.25L7.875 22.3125L26.25 2.625L23.625 15.75L34.125 19.6875L15.75 39.375Z" fill="#5E4A8A"/>
<path d="M35.403 19.3873C35.3533 19.1769 35.2525 18.9821 35.1094 18.8201C34.9662 18.6581 34.7853 18.534 34.5827 18.4587L25.1311 14.9133L27.5362 2.8826C27.5907 2.60307 27.5528 2.31341 27.4282 2.05733C27.3036 1.80125 27.0991 1.59265 26.8455 1.463C26.5919 1.33335 26.3031 1.28968 26.0225 1.3386C25.742 1.38751 25.4849 1.52635 25.2902 1.73416L6.91523 21.4217C6.76599 21.5789 6.65803 21.7707 6.60099 21.9798C6.54395 22.189 6.53961 22.409 6.58836 22.6203C6.63711 22.8315 6.73743 23.0274 6.88035 23.1904C7.02328 23.3534 7.20436 23.4785 7.40742 23.5545L16.8623 27.0999L14.4637 39.1174C14.4093 39.397 14.4472 39.6866 14.5718 39.9427C14.6964 40.1988 14.9009 40.4074 15.1545 40.537C15.408 40.6667 15.6969 40.7104 15.9775 40.6614C16.258 40.6125 16.515 40.4737 16.7098 40.2659L35.0848 20.5784C35.2313 20.4211 35.337 20.2302 35.3925 20.0225C35.448 19.8148 35.4516 19.5967 35.403 19.3873ZM17.9435 35.1094L19.6612 26.5158C19.7227 26.211 19.674 25.8943 19.5238 25.6221C19.3735 25.3499 19.1316 25.1398 18.8409 25.0294L10.1719 21.7728L24.0548 6.89885L22.3387 15.4924C22.2773 15.7972 22.326 16.1139 22.4762 16.3861C22.6264 16.6583 22.8684 16.8684 23.1591 16.9788L31.8216 20.2273L17.9435 35.1094Z" fill="#5E4A8A"/>
</svg>
