<svg width="212" height="221" viewBox="0 0 212 221" fill="none" xmlns="http://www.w3.org/2000/svg">
<path fill-rule="evenodd" clip-rule="evenodd" d="M93.5515 72.2883C93.5515 66.8702 89.2421 62.5928 83.7836 62.5928C78.325 62.5928 74.0156 66.8702 74.0156 72.2883C74.0156 77.7063 78.325 81.9838 83.7836 81.9838C89.2421 81.9838 93.5515 77.5637 93.5515 72.2883Z" fill="#5E4A8A"/>
<path fill-rule="evenodd" clip-rule="evenodd" d="M93.5548 120.766C94.8476 121.336 96.715 119.91 97.8642 117.629C99.0133 115.348 98.8697 112.924 97.5769 112.354C96.2841 111.783 94.4167 113.209 93.2675 115.49C92.1183 117.914 92.262 120.195 93.5548 120.766Z" fill="#5E4A8A"/>
<path fill-rule="evenodd" clip-rule="evenodd" d="M118.557 120.766C119.85 120.195 119.994 117.771 118.845 115.49C117.695 113.209 115.828 111.783 114.535 112.353C113.242 112.924 113.099 115.348 114.248 117.629C115.253 120.053 117.265 121.478 118.557 120.766Z" fill="#5E4A8A"/>
<path fill-rule="evenodd" clip-rule="evenodd" d="M128.315 62.5928C122.856 62.5928 118.547 66.8702 118.547 72.2883C118.547 77.7063 123 81.9838 128.315 81.9838C133.773 81.9838 138.083 77.5637 138.083 72.2883C138.083 66.8702 133.773 62.5928 128.315 62.5928Z" fill="#5E4A8A"/>
<path fill-rule="evenodd" clip-rule="evenodd" d="M72.1555 134.311C72.0119 137.02 72.1555 139.729 72.8738 142.723C74.3102 149.282 77.7577 154.7 83.3599 159.12C89.6803 164.11 97.7245 166.962 106.056 166.962C114.387 166.962 122.432 164.252 128.752 159.262C134.354 154.842 137.802 149.424 139.238 142.865C139.956 140.014 140.1 137.162 139.956 134.596C135.791 143.436 122.144 149.994 106.056 149.994C89.9676 149.709 76.3213 143.151 72.1555 134.311Z" fill="#5E4A8A"/>
<path fill-rule="evenodd" clip-rule="evenodd" d="M148.862 107.649C148.862 107.649 139.094 98.381 126.022 95.3868C127.602 96.3848 155.183 115.918 148.862 144.72C146.707 154.7 141.249 161.687 134.928 166.677C126.597 173.236 116.398 176.515 106.199 176.515C96.0004 176.515 85.8015 173.236 77.47 166.677C71.1496 161.687 65.6911 154.558 63.5364 144.72C57.216 115.918 84.796 96.3848 86.3761 95.3868C73.3043 98.381 63.5364 107.649 63.5364 107.649C27.3376 55.4642 76.1772 34.5048 106.343 52.0423C136.078 34.3623 185.061 55.4642 148.862 107.649Z" fill="#5E4A8A"/>
<path fill-rule="evenodd" clip-rule="evenodd" d="M188.937 58.7432C186.639 48.4774 182.904 39.4948 177.877 31.9381C167.821 18.1077 144.551 14.1155 144.551 14.1155L154.75 10.6935C154.75 10.6935 154.75 10.6935 154.606 10.6935C133.49 0.855484 107.921 7.69936 107.921 7.69936L113.667 0H113.523C88.8161 0.570323 75.6007 12.2619 75.6007 12.2619L81.4902 1.99613C81.4902 1.99613 81.4901 1.99613 81.3465 1.99613C55.6339 10.551 44.5731 27.3755 44.5731 27.3755L47.7334 17.1097C35.5234 26.8052 27.192 40.6355 23.1699 58.6006C4.49591 56.4619 -25.2388 83.8374 40.4074 165.394C40.4074 165.394 38.9709 156.696 39.4019 151.991C39.4019 151.991 46.7278 169.814 67.4128 188.064C67.4128 188.064 65.8327 179.366 65.5454 176.23C65.5454 176.23 79.91 199.47 106.054 221C132.054 199.328 146.562 176.23 146.562 176.23C146.274 179.366 144.694 188.064 144.694 188.064C165.236 169.814 172.705 151.991 172.705 151.991C173.136 156.696 171.7 165.394 171.7 165.394C237.202 84.1226 207.468 56.7471 188.937 58.7432Z" fill="#5E4A8A"/>
<path fill-rule="evenodd" clip-rule="evenodd" d="M126.02 95.3862C139.091 98.3804 148.859 107.648 148.859 107.648C185.058 55.4637 136.218 34.5043 106.053 52.0417C76.0308 34.5043 27.0475 55.6062 63.2463 107.648C63.2463 107.648 73.0142 98.3804 86.086 95.3862C84.5059 96.3843 56.9258 115.918 63.2463 144.719C65.401 154.7 70.8595 161.686 77.1799 166.677C85.5114 173.235 95.7103 176.515 105.909 176.515C116.108 176.515 126.307 173.235 134.638 166.677C140.959 161.686 146.417 154.557 148.572 144.719C155.18 115.775 127.6 96.3843 126.02 95.3862ZM128.318 62.5927C133.776 62.5927 138.086 66.8701 138.086 72.2882C138.086 77.7062 133.776 81.9837 128.318 81.9837C122.859 81.9837 118.55 77.5637 118.55 72.2882C118.55 66.8701 122.859 62.5927 128.318 62.5927ZM114.528 112.353C115.821 111.783 117.688 113.209 118.837 115.49C119.986 117.771 119.843 120.195 118.55 120.766C117.257 121.336 115.39 119.91 114.241 117.629C113.091 115.348 113.235 113.066 114.528 112.353ZM97.5777 112.353C98.8705 112.924 99.0141 115.348 97.8649 117.629C96.7158 119.91 94.8484 121.336 93.5556 120.766C92.2628 120.195 92.1191 117.771 93.2683 115.49C94.4174 113.209 96.2848 111.783 97.5777 112.353ZM83.7876 81.9837C78.3291 81.9837 74.0197 77.5637 74.0197 72.2882C74.0197 66.8701 78.3291 62.5927 83.7876 62.5927C89.2462 62.5927 93.5556 66.8701 93.5556 72.2882C93.5556 77.5637 89.2462 81.9837 83.7876 81.9837ZM139.953 134.311C140.097 136.877 139.953 139.729 139.235 142.58C137.799 149.139 134.351 154.557 128.749 158.977C122.428 163.968 114.384 166.677 106.053 166.677C97.7213 166.677 89.6771 163.968 83.3567 158.835C77.7545 154.415 74.307 148.997 72.8706 142.438C72.1523 139.586 72.0087 136.735 72.1523 134.026C76.3181 142.866 89.8208 149.424 106.053 149.424C122.141 149.709 135.787 143.151 139.953 134.311Z" fill="#FFFFFB"/>
<path fill-rule="evenodd" clip-rule="evenodd" d="M21.8774 110.785C8.66201 98.3808 4.06533 85.406 8.08742 74.855C12.2531 64.0189 23.4575 64.7318 23.4575 64.7318C20.7283 72.2886 21.0156 87.9725 21.1592 88.6854L14.6951 82.8395C14.6951 82.8395 19.1482 102.943 25.0376 113.922L21.8774 110.785Z" fill="#FFFFFB"/>
<path fill-rule="evenodd" clip-rule="evenodd" d="M190.948 88.6851C191.235 88.1148 191.379 72.4309 188.65 64.7316C188.65 64.7316 199.854 64.0187 204.02 74.8548C208.042 85.4058 203.445 98.3806 190.23 110.785L186.926 113.922C192.815 102.801 197.268 82.8393 197.268 82.8393L190.948 88.6851Z" fill="#FFFFFB"/>
</svg>
