<svg width="42" height="42" viewBox="0 0 42 42" fill="none" xmlns="http://www.w3.org/2000/svg">
<path opacity="0.2" d="M36.75 21C36.75 24.1151 35.8263 27.1602 34.0956 29.7502C32.365 32.3403 29.9052 34.359 27.0273 35.5511C24.1493 36.7432 20.9825 37.0551 17.9273 36.4474C14.8721 35.8396 12.0657 34.3396 9.86307 32.1369C7.66039 29.9343 6.16035 27.1279 5.55263 24.0727C4.94491 21.0175 5.25682 17.8507 6.4489 14.9727C7.64098 12.0948 9.65969 9.63499 12.2498 7.90435C14.8398 6.17372 17.8849 5.25 21 5.25C25.1772 5.25 29.1832 6.90937 32.1369 9.86307C35.0906 12.8168 36.75 16.8228 36.75 21Z" fill="#FFB025"/>
<path d="M21 3.9375C17.6254 3.9375 14.3265 4.9382 11.5206 6.81305C8.71467 8.6879 6.52773 11.3527 5.23631 14.4705C3.94489 17.5882 3.60699 21.0189 4.26535 24.3287C4.92371 27.6385 6.54876 30.6788 8.93499 33.065C11.3212 35.4512 14.3615 37.0763 17.6713 37.7346C20.9811 38.393 24.4118 38.0551 27.5295 36.7637C30.6473 35.4723 33.3121 33.2853 35.187 30.4794C37.0618 27.6735 38.0625 24.3746 38.0625 21C38.0577 16.4762 36.2585 12.1391 33.0597 8.94027C29.8609 5.74146 25.5238 3.94228 21 3.9375ZM21 35.4375C18.1445 35.4375 15.3532 34.5908 12.979 33.0043C10.6047 31.4179 8.75423 29.1631 7.66149 26.525C6.56875 23.8869 6.28284 20.984 6.83991 18.1834C7.39699 15.3828 8.77203 12.8103 10.7911 10.7911C12.8103 8.77203 15.3828 7.39699 18.1834 6.83991C20.984 6.28284 23.8869 6.56875 26.525 7.66149C29.1631 8.75423 31.4179 10.6047 33.0043 12.979C34.5908 15.3532 35.4375 18.1445 35.4375 21C35.4332 24.8277 33.9107 28.4974 31.2041 31.2041C28.4974 33.9107 24.8277 35.4332 21 35.4375ZM13.125 17.7188C13.125 17.3294 13.2405 16.9487 13.4568 16.625C13.6731 16.3012 13.9806 16.0489 14.3403 15.8999C14.7001 15.7509 15.0959 15.7119 15.4778 15.7878C15.8597 15.8638 16.2105 16.0513 16.4859 16.3266C16.7612 16.602 16.9487 16.9528 17.0247 17.3347C17.1006 17.7166 17.0616 18.1124 16.9126 18.4722C16.7636 18.8319 16.5113 19.1394 16.1875 19.3557C15.8638 19.572 15.4831 19.6875 15.0937 19.6875C14.5716 19.6875 14.0708 19.4801 13.7016 19.1109C13.3324 18.7417 13.125 18.2409 13.125 17.7188ZM30.1875 17.7188C30.1875 18.0668 30.0492 18.4007 29.8031 18.6468C29.5569 18.893 29.2231 19.0312 28.875 19.0312H24.9375C24.5894 19.0312 24.2556 18.893 24.0094 18.6468C23.7633 18.4007 23.625 18.0668 23.625 17.7188C23.625 17.3707 23.7633 17.0368 24.0094 16.7907C24.2556 16.5445 24.5894 16.4062 24.9375 16.4062H28.875C29.2231 16.4062 29.5569 16.5445 29.8031 16.7907C30.0492 17.0368 30.1875 17.3707 30.1875 17.7188ZM28.6978 25.5938C27.0096 28.5124 24.2041 30.1875 21 30.1875C17.7959 30.1875 14.9904 28.5141 13.3022 25.5938C13.2072 25.4444 13.1435 25.2773 13.1147 25.1026C13.086 24.928 13.0929 24.7493 13.135 24.5774C13.1771 24.4054 13.2536 24.2438 13.3598 24.1022C13.466 23.9606 13.5997 23.8419 13.753 23.7533C13.9062 23.6647 14.0758 23.608 14.2516 23.5867C14.4273 23.5654 14.6055 23.5798 14.7755 23.6291C14.9455 23.6784 15.1038 23.7616 15.2408 23.8737C15.3778 23.9858 15.4908 24.1244 15.5728 24.2812C16.7984 26.3993 18.7245 27.5625 21 27.5625C23.2755 27.5625 25.2016 26.3977 26.4272 24.2812C26.5092 24.1244 26.6222 23.9858 26.7592 23.8737C26.8962 23.7616 27.0545 23.6784 27.2245 23.6291C27.3945 23.5798 27.5727 23.5654 27.7484 23.5867C27.9242 23.608 28.0938 23.6647 28.247 23.7533C28.4003 23.8419 28.534 23.9606 28.6402 24.1022C28.7464 24.2438 28.8229 24.4054 28.865 24.5774C28.9071 24.7493 28.914 24.928 28.8853 25.1026C28.8565 25.2773 28.7928 25.4444 28.6978 25.5938Z" fill="#FFB025"/>
</svg>
