<svg width="42" height="42" viewBox="0 0 42 42" fill="none" xmlns="http://www.w3.org/2000/svg">
<path opacity="0.2" d="M30.2088 24.232C30.0289 24.39 29.8952 24.5938 29.8218 24.8217C29.7485 25.0497 29.7382 25.2932 29.7921 25.5265L32.0102 35.1307C32.0688 35.3815 32.0523 35.6441 31.9628 35.8856C31.8732 36.1272 31.7146 36.337 31.5066 36.489C31.2986 36.641 31.0505 36.7285 30.7932 36.7404C30.5359 36.7524 30.2807 36.6884 30.0595 36.5564L21.6759 31.4705C21.4722 31.3466 21.2384 31.2811 21 31.2811C20.7616 31.2811 20.5278 31.3466 20.324 31.4705L11.9405 36.5564C11.7192 36.6884 11.4641 36.7524 11.2068 36.7404C10.9494 36.7285 10.7013 36.641 10.4934 36.489C10.2854 36.337 10.1267 36.1272 10.0372 35.8856C9.94763 35.6441 9.93113 35.3815 9.98975 35.1307L12.2079 25.5265C12.2618 25.2932 12.2515 25.0497 12.1781 24.8217C12.1048 24.5938 11.971 24.39 11.7912 24.232L4.3903 17.7762C4.19244 17.608 4.04891 17.3849 3.97787 17.1352C3.90683 16.8854 3.91147 16.6202 3.99121 16.373C4.07095 16.1259 4.2222 15.908 4.42583 15.7469C4.62946 15.5857 4.8763 15.4886 5.13514 15.4678L14.8903 14.6245C15.1283 14.6033 15.356 14.5176 15.5488 14.3765C15.7417 14.2354 15.8923 14.0443 15.9846 13.8239L19.7958 4.7414C19.8976 4.50658 20.0658 4.30664 20.2797 4.1662C20.4937 4.02575 20.7441 3.95093 21 3.95093C21.2559 3.95093 21.5063 4.02575 21.7202 4.1662C21.9342 4.30664 22.1024 4.50658 22.2042 4.7414L26.0154 13.8239C26.1076 14.0443 26.2583 14.2354 26.4511 14.3765C26.644 14.5176 26.8717 14.6033 27.1097 14.6245L36.8648 15.4678C37.1237 15.4886 37.3705 15.5857 37.5741 15.7469C37.7778 15.908 37.929 16.1259 38.0088 16.373C38.0885 16.6202 38.0931 16.8854 38.0221 17.1352C37.9511 17.3849 37.8075 17.608 37.6097 17.7762L30.2088 24.232Z" fill="#D72D5C"/>
<path d="M39.2437 15.9617C39.0848 15.4718 38.7852 15.0394 38.3824 14.7185C37.9795 14.3976 37.4911 14.2023 36.978 14.157L27.2344 13.317L23.415 4.23449C23.2161 3.75792 22.8807 3.35083 22.451 3.06449C22.0213 2.77815 21.5164 2.62537 21 2.62537C20.4836 2.62537 19.9787 2.77815 19.549 3.06449C19.1193 3.35083 18.7839 3.75792 18.585 4.23449L14.7771 13.317L5.02195 14.1619C4.50686 14.2052 4.016 14.3996 3.61095 14.7207C3.20589 15.0419 2.90467 15.4755 2.74505 15.9671C2.58543 16.4588 2.57452 16.9866 2.71369 17.4844C2.85285 17.9822 3.1359 18.4279 3.52734 18.7655L10.9282 25.2329L8.71008 34.8371C8.59279 35.3397 8.62626 35.8657 8.8063 36.3494C8.98634 36.833 9.30496 37.2529 9.72233 37.5565C10.1397 37.8601 10.6373 38.0339 11.1529 38.0562C11.6685 38.0785 12.1793 37.9483 12.6213 37.6819L20.9885 32.596L29.3737 37.6819C29.8158 37.9483 30.3265 38.0785 30.8422 38.0562C31.3578 38.0339 31.8554 37.8601 32.2727 37.5565C32.6901 37.2529 33.0087 36.833 33.1888 36.3494C33.3688 35.8657 33.4023 35.3397 33.285 34.8371L31.0685 25.223L38.4677 18.7655C38.8591 18.4267 39.1416 17.9798 39.2797 17.4809C39.4178 16.982 39.4053 16.4535 39.2437 15.9617ZM36.7467 16.782L29.3475 23.2395C28.9874 23.5527 28.7195 23.9583 28.5726 24.4124C28.4258 24.8665 28.4055 25.3521 28.5141 25.8169L30.7371 35.4375L22.3584 30.3516C21.9497 30.1027 21.4803 29.971 21.0016 29.971C20.523 29.971 20.0536 30.1027 19.6448 30.3516L11.2777 35.4375L13.4859 25.8235C13.5945 25.3587 13.5742 24.8731 13.4274 24.419C13.2805 23.9648 13.0126 23.5593 12.6525 23.2461L5.25 16.7918C5.2494 16.7869 5.2494 16.782 5.25 16.7771L15.0019 15.9338C15.478 15.8918 15.9336 15.7207 16.3196 15.4388C16.7056 15.1569 17.0073 14.7749 17.1921 14.3342L21 5.26316L24.8062 14.3342C24.9911 14.7749 25.2928 15.1569 25.6788 15.4388C26.0648 15.7207 26.5204 15.8918 26.9965 15.9338L36.75 16.7771C36.75 16.7771 36.75 16.7869 36.75 16.7886L36.7467 16.782Z" fill="#D72D5C"/>
</svg>
